<svg width="17" height="16" viewBox="0 0 17 16" fill="none" xmlns="http://www.w3.org/2000/svg">
<path d="M15.7095 8.7299C15.8684 8.65056 16.002 8.52875 16.0954 8.37808C16.1888 8.22741 16.2383 8.05383 16.2383 7.87676C16.2383 7.69969 16.1888 7.52611 16.0954 7.37545C16.002 7.22478 15.8684 7.10296 15.7095 7.02362L2.29646 0.343546C2.13015 0.260659 1.94322 0.227775 1.75846 0.248905C1.57371 0.270034 1.39912 0.344264 1.256 0.462539C1.11288 0.580813 1.00741 0.738021 0.95246 0.914982C0.897508 1.09194 0.895449 1.28101 0.946533 1.45912L2.31562 6.2306C2.37289 6.43002 2.49383 6.60543 2.66013 6.73027C2.82643 6.85511 3.02904 6.92258 3.23729 6.92246L7.61664 6.92246C7.87074 6.92246 8.11443 7.02301 8.2941 7.20197C8.47378 7.38094 8.57471 7.62367 8.57471 7.87676C8.57471 8.12986 8.47378 8.37258 8.2941 8.55155C8.11443 8.73052 7.87074 8.83106 7.61664 8.83106L3.23729 8.83106C3.02904 8.83094 2.82643 8.89841 2.66013 9.02325C2.49383 9.14809 2.37289 9.3235 2.31562 9.52292L0.947491 14.2944C0.896304 14.4725 0.89824 14.6615 0.953062 14.8385C1.00788 15.0154 1.11322 15.1727 1.25623 15.2911C1.39924 15.4094 1.57374 15.4838 1.75845 15.5051C1.94316 15.5264 2.1301 15.4937 2.29646 15.4109L15.7095 8.73086L15.7095 8.7299Z" fill="white"/>
</svg>
