<svg width="44" height="44" viewBox="0 0 44 44" fill="none" xmlns="http://www.w3.org/2000/svg">
<path d="M29.1401 22.9359C29.1761 22.6359 29.2001 22.3239 29.2001 21.9999C29.2001 21.6759 29.1761 21.3639 29.1281 21.0639L31.1561 19.4799C31.3361 19.3359 31.3841 19.0719 31.2761 18.8679L29.3561 15.5439C29.2361 15.3279 28.9841 15.2559 28.7681 15.3279L26.3801 16.2879C25.8761 15.9039 25.3481 15.5919 24.7601 15.3519L24.4001 12.8079C24.3641 12.5679 24.1601 12.3999 23.9201 12.3999H20.0801C19.8401 12.3999 19.6481 12.5679 19.6121 12.8079L19.2521 15.3519C18.6641 15.5919 18.1241 15.9159 17.6321 16.2879L15.2441 15.3279C15.0281 15.2439 14.7761 15.3279 14.6561 15.5439L12.7361 18.8679C12.6161 19.0839 12.6641 19.3359 12.8561 19.4799L14.8841 21.0639C14.8361 21.3639 14.8001 21.6879 14.8001 21.9999C14.8001 22.3119 14.8241 22.6359 14.8721 22.9359L12.8441 24.5199C12.6641 24.6639 12.6161 24.9279 12.7241 25.1319L14.6441 28.4559C14.7641 28.6719 15.0161 28.7439 15.2321 28.6719L17.6201 27.7119C18.1241 28.0959 18.6521 28.4079 19.2401 28.6479L19.6001 31.1919C19.6481 31.4319 19.8401 31.5999 20.0801 31.5999H23.9201C24.1601 31.5999 24.3641 31.4319 24.3881 31.1919L24.7481 28.6479C25.3361 28.4079 25.8761 28.0839 26.3681 27.7119L28.7561 28.6719C28.9721 28.7559 29.2241 28.6719 29.3441 28.4559L31.2641 25.1319C31.3841 24.9159 31.3361 24.6639 31.1441 24.5199L29.1401 22.9359ZM22.0001 25.5999C20.0201 25.5999 18.4001 23.9799 18.4001 21.9999C18.4001 20.0199 20.0201 18.3999 22.0001 18.3999C23.9801 18.3999 25.6001 20.0199 25.6001 21.9999C25.6001 23.9799 23.9801 25.5999 22.0001 25.5999Z" fill="white"/>
</svg>
