<svg width="13" height="13" viewBox="0 0 13 13" fill="none" xmlns="http://www.w3.org/2000/svg">
<path fill-rule="evenodd" clip-rule="evenodd" d="M0.292787 1.29259C0.480314 1.10512 0.734622 0.999806 0.999786 0.999806C1.26495 0.999806 1.51926 1.10512 1.70679 1.29259L5.99979 5.58559L10.2928 1.29259C10.385 1.19708 10.4954 1.1209 10.6174 1.06849C10.7394 1.01608 10.8706 0.988496 11.0034 0.987342C11.1362 0.986189 11.2678 1.01149 11.3907 1.06177C11.5136 1.11205 11.6253 1.18631 11.7192 1.2802C11.8131 1.37409 11.8873 1.48574 11.9376 1.60864C11.9879 1.73154 12.0132 1.86321 12.012 1.99599C12.0109 2.12877 11.9833 2.25999 11.9309 2.382C11.8785 2.504 11.8023 2.61435 11.7068 2.70659L7.41379 6.99959L11.7068 11.2926C11.8889 11.4812 11.9897 11.7338 11.9875 11.996C11.9852 12.2582 11.88 12.509 11.6946 12.6944C11.5092 12.8798 11.2584 12.985 10.9962 12.9873C10.734 12.9895 10.4814 12.8888 10.2928 12.7066L5.99979 8.41359L1.70679 12.7066C1.51818 12.8888 1.26558 12.9895 1.00339 12.9873C0.741188 12.985 0.490376 12.8798 0.304968 12.6944C0.11956 12.509 0.0143906 12.2582 0.0121121 11.996C0.00983372 11.7338 0.110629 11.4812 0.292787 11.2926L4.58579 6.99959L0.292787 2.70659C0.105316 2.51906 0 2.26476 0 1.99959C0 1.73443 0.105316 1.48012 0.292787 1.29259Z" fill="white"/>
</svg>
