<svg width="49" height="51" viewBox="0 0 49 51" fill="none" xmlns="http://www.w3.org/2000/svg">
<rect x="3.91943" y="5.88461" width="45.0092" height="44.8944" rx="22.4472" fill="url(#paint0_linear_309_143466)"/>
<path d="M12.7605 1.9919C13.1477 1.18814 14.2923 1.18814 14.6795 1.9919L18.0212 8.92927C18.1258 9.14637 18.3009 9.32159 18.5179 9.42629L25.4518 12.7716C26.2548 13.159 26.2548 14.3026 25.4518 14.69L18.5179 18.0352C18.3009 18.14 18.1258 18.3152 18.0212 18.5323L14.6795 25.4696C14.2923 26.2734 13.1477 26.2734 12.7605 25.4696L9.41882 18.5323C9.31425 18.3152 9.13914 18.14 8.9221 18.0352L1.98819 14.69C1.18521 14.3026 1.18521 13.159 1.98819 12.7716L8.9221 9.42629C9.13914 9.32159 9.31425 9.14637 9.41882 8.92927L12.7605 1.9919Z" fill="white"/>
<path d="M35.7904 25.1591C36.1041 24.1673 37.5076 24.1673 37.8213 25.1591L38.9952 28.871C39.0997 29.2015 39.3586 29.4604 39.689 29.5651L43.4006 30.7408C44.3918 31.0547 44.3918 32.4574 43.4006 32.7713L39.689 33.947C39.3586 34.0517 39.0997 34.3107 38.9952 34.6412L37.8213 38.353C37.5076 39.3449 36.1041 39.3448 35.7904 38.353L34.6165 34.6412C34.512 34.3107 34.2531 34.0517 33.9227 33.947L30.2111 32.7713C29.2199 32.4574 29.2199 31.0547 30.2111 30.7408L33.9227 29.5651C34.2531 29.4604 34.512 29.2015 34.6165 28.871L35.7904 25.1591Z" fill="white"/>
<ellipse cx="29.9454" cy="41.8531" rx="2.94" ry="2.94231" fill="white"/>
<defs>
<linearGradient id="paint0_linear_309_143466" x1="43.0579" y1="44.9232" x2="14.7621" y2="13.6204" gradientUnits="userSpaceOnUse">
<stop stop-color="#BD00FF"/>
<stop offset="0.510417" stop-color="#FF7AF2"/>
<stop offset="0.927083" stop-color="#FFC700"/>
</linearGradient>
</defs>
</svg>
