<svg width="61" height="61" viewBox="0 0 61 61" fill="none" xmlns="http://www.w3.org/2000/svg">
<circle cx="30.4996" cy="30.4999" r="18.5" transform="rotate(97.7907 30.4996 30.4999)" stroke="white" stroke-opacity="0.5" stroke-width="10"/>
<rect x="43.9995" y="25" width="10" height="10" rx="5" fill="white"/>
<rect x="13.9995" y="40" width="10" height="10" rx="5" fill="white"/>
<path d="M53.9995 30.5C53.9995 34.8992 52.7647 39.21 50.4356 42.942C48.1065 46.674 44.7766 49.6773 40.8248 51.6102C36.873 53.543 32.458 54.3279 28.0822 53.8753C23.7064 53.4228 19.5454 51.7511 16.0728 49.0505L22.2 41.1719C24.1977 42.7255 26.5915 43.6872 29.1089 43.9476C31.6262 44.2079 34.1661 43.7564 36.4395 42.6444C38.7129 41.5325 40.6286 39.8047 41.9685 37.6577C43.3084 35.5108 44.0188 33.0308 44.0188 30.5L53.9995 30.5Z" fill="white"/>
</svg>
