<svg width="31" height="31" viewBox="0 0 31 31" fill="none" xmlns="http://www.w3.org/2000/svg">
<rect x="0.556641" y="0.196564" width="30" height="30" rx="15" fill="url(#paint0_linear_316_143447)"/>
<path d="M20.5233 13.5061C20.6706 13.0406 21.3294 13.0406 21.4767 13.5061L22.1238 15.5504C22.1729 15.7056 22.2944 15.8271 22.4496 15.8762L24.4939 16.5233C24.9594 16.6706 24.9594 17.3294 24.4939 17.4767L22.4496 18.1238C22.2944 18.1729 22.1729 18.2944 22.1238 18.4496L21.4767 20.4939C21.3294 20.9594 20.6706 20.9594 20.5233 20.4939L19.8762 18.4496C19.8271 18.2944 19.7056 18.1729 19.5504 18.1238L17.5061 17.4767C17.0406 17.3294 17.0406 16.6706 17.5061 16.5233L19.5504 15.8762C19.7056 15.8271 19.8271 15.7056 19.8762 15.5504L20.5233 13.5061Z" fill="white"/>
<circle cx="15.5" cy="20.5" r="1.5" fill="white"/>
<defs>
<linearGradient id="paint0_linear_316_143447" x1="26.6436" y1="26.2835" x2="7.73055" y2="5.41396" gradientUnits="userSpaceOnUse">
<stop stop-color="#BD00FF"/>
<stop offset="0.510417" stop-color="#FF7AF2"/>
<stop offset="0.927083" stop-color="#FFC700"/>
</linearGradient>
</defs>
</svg>
